<svg xmlns="http://www.w3.org/2000/svg" viewBox="7.5 7.5 25.8 23" fill="none">
  <g>
    <path d="M21.0689 20.5036C21.0894 20.483 21.1114 20.4639 21.1319 20.4433C21.1744 20.4036 21.2155 20.3625 21.2566 20.3213L21.3416 20.2378L21.5978 19.9842L21.9459 19.6403L22.2446 19.3443L22.5255 19.0661L22.8188 18.777L23.0874 18.5111L23.4615 18.1411C23.5327 18.0713 23.6054 18.0027 23.6794 17.9356C23.815 17.8109 23.9548 17.6917 24.0987 17.5766C24.2302 17.4711 24.3659 17.3696 24.5029 17.271C24.6961 17.134 24.8962 17.0051 25.1004 16.8846C25.3005 16.7667 25.506 16.6557 25.717 16.5543C25.9144 16.4584 26.1172 16.3707 26.3227 16.2898C26.4378 16.2446 26.5529 16.2021 26.6708 16.1624C26.7297 16.1418 26.7886 16.1226 26.8476 16.1048C26.32 14.0274 25.3553 12.1254 24.0548 10.5015C23.8027 10.1836 23.4162 10 23.0079 10H12.2206C12.0247 10 11.9438 10.2494 12.1014 10.3645C15.7712 13.0545 18.8325 16.5228 21.0442 20.5269C21.0524 20.52 21.0606 20.5118 21.0689 20.5036Z" fill="#00D6B9"/>
    <path d="M16.7907 30C22.3611 30 27.2134 26.9263 29.7458 22.3823C29.8349 22.2234 29.9212 22.0617 30.0034 21.8986C29.8746 22.1452 29.7335 22.3782 29.5786 22.5975C29.5238 22.6756 29.4676 22.7523 29.4087 22.8277C29.3361 22.9222 29.2607 23.0127 29.184 23.1017C29.1223 23.1716 29.0606 23.2401 28.9962 23.3073C28.8661 23.443 28.7304 23.5704 28.5892 23.691C28.5111 23.7581 28.4317 23.8225 28.3494 23.8856C28.2535 23.9582 28.1562 24.0281 28.0576 24.0952C27.9945 24.1377 27.9315 24.1788 27.8671 24.2172C27.7999 24.2583 27.7328 24.298 27.6629 24.3364C27.5231 24.4145 27.3806 24.4858 27.2354 24.5516C27.1093 24.6091 26.9805 24.6612 26.8503 24.7091C26.7091 24.7612 26.5653 24.8064 26.42 24.8475C26.2035 24.9078 25.9842 24.9544 25.7595 24.9901C25.5978 25.0147 25.4347 25.0339 25.2689 25.0449C25.0963 25.0572 24.9209 25.0613 24.7441 25.0586C24.5509 25.0558 24.3563 25.0435 24.159 25.0216C24.0151 25.0065 23.8698 24.9846 23.7259 24.9599C23.5999 24.938 23.4738 24.9106 23.3464 24.8804C23.2792 24.864 23.2134 24.8475 23.1463 24.8297C22.9599 24.779 22.7749 24.7283 22.5913 24.6749C22.4995 24.6488 22.4077 24.6214 22.3159 24.594C22.1788 24.5529 22.0418 24.5118 21.9061 24.4693C21.7951 24.4351 21.6828 24.3994 21.5718 24.3624C21.4663 24.3282 21.3607 24.2939 21.2552 24.2583C21.184 24.2336 21.1113 24.2103 21.0401 24.1857C20.9524 24.1555 20.8661 24.1254 20.7797 24.0952C20.7181 24.0733 20.655 24.0514 20.5934 24.0295C20.47 23.9856 20.3481 23.9404 20.2261 23.8952C20.1548 23.8691 20.085 23.8417 20.0137 23.8143C19.9192 23.7787 19.8246 23.7417 19.73 23.7047C19.63 23.6649 19.5313 23.6266 19.4313 23.5855C19.3669 23.5594 19.3025 23.5334 19.2381 23.506C19.1586 23.4731 19.0778 23.4402 18.9983 23.406C18.9366 23.3799 18.875 23.3539 18.8133 23.3278C18.7489 23.3004 18.6845 23.273 18.6214 23.2443C18.5666 23.2196 18.5104 23.1963 18.4556 23.1716C18.4049 23.1497 18.3542 23.1264 18.3035 23.1045C18.2528 23.0812 18.2008 23.0579 18.1501 23.0346C18.0966 23.0099 18.0445 22.9866 17.9911 22.962C17.9239 22.9304 17.8582 22.9003 17.791 22.8688C17.7211 22.8359 17.6513 22.803 17.5827 22.7701C17.5087 22.7345 17.4347 22.6989 17.3607 22.6619C17.2977 22.6303 17.2347 22.6002 17.1716 22.5687C13.8362 20.901 10.8763 18.6783 8.34943 15.9856C8.22336 15.8513 8 15.9404 8 16.124L8.00548 25.6437V26.4166C8.00548 26.8647 8.22748 27.2867 8.60021 27.5348C10.9462 29.0915 13.7622 30 16.7907 30Z" fill="#3370FF"/>
    <path d="M29.7458 22.3823C29.7431 22.3864 29.7403 22.3905 29.739 22.3947L29.7458 22.3823L29.7965 22.2891C29.7787 22.3207 29.7622 22.3508 29.7458 22.3823Z" fill="#133C92"/>
    <path d="M29.9774 21.9466L29.9911 21.9219L29.9979 21.9096C29.9911 21.9219 29.9842 21.9342 29.9774 21.9466Z" fill="#133C92"/>
    <path d="M33.1511 16.5817C32.0219 16.0254 30.7516 15.7129 29.4073 15.7129C28.6084 15.7129 27.8356 15.8225 27.1038 16.0295C27.0189 16.0528 26.9353 16.0788 26.8517 16.1048C26.7928 16.124 26.7338 16.1432 26.6749 16.1624C26.5571 16.2021 26.4419 16.2446 26.3268 16.2898C26.1213 16.3707 25.9185 16.4584 25.7212 16.5543C25.5101 16.6557 25.3046 16.7667 25.1045 16.8846C24.899 17.0051 24.7003 17.134 24.507 17.271C24.3686 17.3683 24.2343 17.4711 24.1028 17.5766C23.9589 17.6917 23.8191 17.8123 23.6835 17.9356C23.6095 18.0027 23.5368 18.0713 23.4656 18.1411L23.0915 18.5111L22.8229 18.777L22.5296 19.0661L22.2487 19.3443L21.95 19.6403L21.6019 19.9842L21.3457 20.2378L21.2607 20.3213C21.2196 20.3625 21.1771 20.4022 21.136 20.4433C21.1155 20.4639 21.0935 20.483 21.073 20.5036C21.0415 20.5337 21.0099 20.5639 20.9784 20.594C20.9428 20.6269 20.9085 20.6598 20.8729 20.6927C19.9493 21.5409 18.9174 22.2741 17.8006 22.8674C17.8664 22.8989 17.9336 22.9305 18.0007 22.9606C18.0528 22.9853 18.1062 23.0099 18.1597 23.0332C18.2104 23.0565 18.2624 23.0798 18.3131 23.1031C18.3638 23.1264 18.4145 23.1483 18.4652 23.1703C18.5201 23.1949 18.5762 23.2196 18.6311 23.2429C18.6955 23.2703 18.7585 23.2991 18.8229 23.3265C18.8846 23.3525 18.9462 23.3786 19.0079 23.4046C19.0874 23.4388 19.1682 23.4717 19.2477 23.5046C19.3121 23.5307 19.3765 23.5567 19.4409 23.5841C19.5396 23.6238 19.6396 23.6636 19.7396 23.7033C19.8342 23.7403 19.9288 23.7773 20.0233 23.813C20.0946 23.8404 20.1645 23.8664 20.2357 23.8938C20.3577 23.939 20.4796 23.9842 20.603 24.0281C20.6646 24.05 20.7263 24.0719 20.7893 24.0939C20.8757 24.124 20.9634 24.1542 21.0497 24.1843C21.1209 24.209 21.1936 24.2336 21.2648 24.2569C21.3703 24.2926 21.4759 24.3268 21.5814 24.3611C21.6924 24.3967 21.8034 24.4323 21.9157 24.468C22.0514 24.5104 22.1884 24.5516 22.3255 24.5927C22.4173 24.6201 22.5091 24.6475 22.6009 24.6735C22.7845 24.727 22.9695 24.779 23.1559 24.8284C23.223 24.8462 23.2888 24.864 23.356 24.8791C23.4834 24.9092 23.6095 24.9353 23.7355 24.9585C23.8808 24.9846 24.0247 25.0051 24.1686 25.0202C24.3645 25.0421 24.5605 25.0545 24.7537 25.0572C24.9305 25.06 25.1045 25.0558 25.2785 25.0435C25.4443 25.0312 25.6074 25.0134 25.7691 24.9887C25.9938 24.9544 26.2131 24.9065 26.4296 24.8462C26.5749 24.8064 26.7188 24.7599 26.8599 24.7078C26.9901 24.6598 27.1189 24.6077 27.245 24.5502C27.3902 24.4844 27.5327 24.4132 27.6725 24.335C27.741 24.2967 27.8095 24.2569 27.8767 24.2158C27.9411 24.1761 28.0041 24.135 28.0672 24.0939C28.1658 24.0267 28.2631 23.9568 28.359 23.8842C28.4399 23.8212 28.5207 23.7568 28.5988 23.6896C28.74 23.569 28.8757 23.4402 29.0058 23.3059C29.0702 23.2388 29.1319 23.1716 29.1936 23.1004C29.2703 23.0113 29.3457 22.9209 29.4183 22.8263C29.4759 22.7509 29.5334 22.6742 29.5882 22.5961C29.7417 22.3782 29.8815 22.1466 30.0089 21.9027L30.1528 21.6149L31.4574 19.0154L31.4546 19.0209C31.8644 18.1055 32.444 17.2806 33.1511 16.5817Z" fill="#133C9A"/>
  </g>
</svg>
